Duration: 01:58:59.40, start: 0.000000, bitrate: 831 kb/s
Stream #0.0: Video: mpeg4, yuv420p, 496x272 [PAR 1:1 DAR 31:17], 25.00 tb(r)
Stream #0.1: Audio: mp3, 48000 Hz, stereo, s16, 32 kb/s